<?xml version="1.0" encoding="UTF-8" standalone="no"?>
<!-- Created with Inkscape (http://www.inkscape.org/) -->

<svg
   xmlns:dc="http://purl.org/dc/elements/1.1/"
   xmlns:cc="http://creativecommons.org/ns#"
   xmlns:rdf="http://www.w3.org/1999/02/22-rdf-syntax-ns#"
   xmlns:svg="http://www.w3.org/2000/svg"
   xmlns="http://www.w3.org/2000/svg"
   xmlns:sodipodi="http://sodipodi.sourceforge.net/DTD/sodipodi-0.dtd"
   xmlns:inkscape="http://www.inkscape.org/namespaces/inkscape"
   width="1000"
   height="1000"
   viewBox="0 0 264.58333 264.58333"
   version="1.1"
   id="svg972"
   inkscape:version="0.92.4 (unknown)"
   sodipodi:docname="ABOUT BUTTON.svg">
  <defs
     id="defs966" />
  <sodipodi:namedview
     id="base"
     pagecolor="#ffffff"
     bordercolor="#666666"
     borderopacity="1.0"
     inkscape:pageopacity="0.0"
     inkscape:pageshadow="2"
     inkscape:zoom="0.49497475"
     inkscape:cx="1214.7916"
     inkscape:cy="787.32593"
     inkscape:document-units="mm"
     inkscape:current-layer="layer1"
     showgrid="false"
     units="px"
     inkscape:window-width="1837"
     inkscape:window-height="1018"
     inkscape:window-x="83"
     inkscape:window-y="34"
     inkscape:window-maximized="1" />
  <metadata
     id="metadata969">
    <rdf:RDF>
      <cc:Work
         rdf:about="">
        <dc:format>image/svg+xml</dc:format>
        <dc:type
           rdf:resource="http://purl.org/dc/dcmitype/StillImage" />
        <dc:title />
      </cc:Work>
    </rdf:RDF>
  </metadata>
  <g
     inkscape:label="Layer 1"
     inkscape:groupmode="layer"
     id="layer1"
     transform="translate(0,-32.416668)">
    <rect
       id="rect34"
       width="255.8985"
       height="255.89848"
       x="4.4132462"
       y="36.688278"
       style="fill:#fff6d5;fill-opacity:0.37254902;stroke:#ffcc00;stroke-width:8.68485546;stroke-miterlimit:4;stroke-dasharray:none;stroke-opacity:1"
       ry="17.974054" />
    <path
       style="fill:#ffcc00;fill-opacity:1;stroke-width:0.19429235"
       d="m 128.69303,226.09969 c -18.50662,-0.98378 -35.634687,-7.91274 -49.447387,-20.00352 -2.40192,-2.10245 -6.71336,-6.49478 -8.66595,-8.82856 -10.41689,-12.45016 -16.65047,-27.2195 -18.46304,-43.74459 -0.44528,-4.05933 -0.44528,-12.19941 0,-16.25875 1.81395,-16.53774 7.99408,-31.18404 18.45938,-43.746651 2.02247,-2.42778 6.50137,-6.96491 9.05816,-9.17584 12.65534,-10.94334 27.717577,-17.44855 44.718157,-19.31334 4.05934,-0.44522 12.1994,-0.44522 16.25872,0 18.67195,2.04808 34.99036,9.6846 48.16248,22.53863 13.81513,13.481481 21.94094,30.256481 24.07335,49.697201 0.44523,4.05934 0.44523,12.19942 0,16.25875 -1.8125,16.52469 -8.05046,31.30398 -18.46312,43.7439 -2.07099,2.47422 -6.13276,6.60046 -8.81268,8.95257 -12.49379,10.96568 -28.07744,17.75602 -44.7568,19.50196 -2.84035,0.29694 -9.6472,0.5097 -12.12127,0.37839 z m 12.32066,-12.78639 c 14.46956,-1.91258 27.52355,-8.0285 38.01734,-17.81148 11.88607,-11.08097 19.19615,-25.31676 21.39057,-41.65645 0.48112,-3.58213 0.48112,-13.32128 0,-16.90341 -2.08199,-15.5027 -8.72814,-29.04576 -19.58333,-39.905931 -10.81782,-10.82267 -24.1041,-17.35674 -39.80772,-19.57698 -1.90172,-0.26895 -3.75648,-0.34382 -8.54883,-0.34637 -5.36349,-0.002 -6.49252,0.0516 -9.13176,0.43851 -13.37571,1.96164 -24.853837,7.05987 -34.977527,15.53592 -2.23954,1.875 -6.66415,6.32708 -8.53804,8.590941 -8.29603,10.02257 -13.42047,21.80838 -15.29055,35.16691 -0.48543,3.46717 -0.48543,13.63057 0,17.09774 1.45722,10.40935 4.70557,19.42676 10.07664,27.9726 5.43751,8.6516 13.36301,16.45857 22.21134,21.87918 8.435167,5.16767 18.314547,8.55317 27.975367,9.58686 1.06859,0.11376 2.24888,0.24315 2.62289,0.28604 1.71503,0.19735 11.30223,-0.0523 13.58361,-0.354 z m -32.23563,-21.36787 v -3.1871 l 4.323,-0.0832 c 2.88739,-0.0556 4.54882,-0.16755 5.00303,-0.33691 1.10723,-0.41292 1.96183,-1.16748 2.40319,-2.12175 0.41306,-0.89325 0.41433,-0.94425 0.46697,-21.16202 0.0392,-14.54004 -0.007,-20.49567 -0.16545,-21.07737 -0.29987,-1.11351 -1.54054,-2.3037 -2.94488,-2.82496 -1.46823,-0.54495 -4.28453,-0.79163 -7.58018,-0.66387 l -2.67155,0.10358 v -3.13621 -3.13625 h 1.16019 c 1.3674,0 32.74126,-1.10608 35.21903,-1.24165 l 1.69799,-0.0927 0.0508,26.36244 c 0.0487,25.35613 0.0646,26.39051 0.41609,27.09763 0.81422,1.6388 3.01174,2.26786 7.94064,2.27295 l 3.25441,0.003 v 3.20584 3.20581 h -24.28655 -24.28657 z m 20.11619,-68.51734 c -4.45262,-0.69233 -8.37296,-3.50722 -10.27373,-7.37676 -1.21444,-2.47237 -1.56291,-3.90102 -1.56291,-6.40748 0,-2.50642 0.34854,-3.93503 1.56291,-6.40744 0.73818,-1.50283 1.19457,-2.13149 2.48122,-3.418167 1.28665,-1.286654 1.91538,-1.743074 3.41821,-2.481244 2.45477,-1.20578 3.89333,-1.55491 6.40743,-1.55491 2.50868,0 3.95266,0.34928 6.38535,1.54394 1.48791,0.73078 2.11293,1.18706 3.42921,2.503294 1.31625,1.316267 1.77253,1.941337 2.50327,3.429147 1.19479,2.43272 1.54394,3.87671 1.54394,6.38538 0,2.50872 -0.34925,3.9527 -1.54394,6.38542 -0.73074,1.48786 -1.18702,2.11292 -2.50327,3.42915 -2.497,2.49697 -5.51511,3.84356 -9.08875,4.05512 -0.88008,0.052 -2.12161,0.0145 -2.75894,-0.0854 z"
       id="path32"
       inkscape:connector-curvature="0" />
    <text
       xml:space="preserve"
       style="font-style:normal;font-variant:normal;font-weight:bold;font-stretch:normal;font-size:37.33564377px;line-height:1.25;font-family:sans-serif;-inkscape-font-specification:'sans-serif Bold';letter-spacing:0px;word-spacing:0px;fill:#ffcc00;fill-opacity:1;stroke:none;stroke-width:0.93339115;"
       x="77.64048"
       y="266.08987"
       id="text854"><tspan
         sodipodi:role="line"
         id="tspan852"
         x="77.64048"
         y="266.08987"
         style="font-style:normal;font-variant:normal;font-weight:bold;font-stretch:normal;font-size:31.11303711px;font-family:sans-serif;-inkscape-font-specification:'sans-serif Bold';fill:#ffcc00;fill-opacity:1;stroke-width:0.93339115;">ABOUT</tspan></text>
  </g>
</svg>
