<?xml version="1.0" encoding="UTF-8" standalone="no"?>
<!-- Created with Inkscape (http://www.inkscape.org/) -->

<svg
   xmlns:dc="http://purl.org/dc/elements/1.1/"
   xmlns:cc="http://creativecommons.org/ns#"
   xmlns:rdf="http://www.w3.org/1999/02/22-rdf-syntax-ns#"
   xmlns:svg="http://www.w3.org/2000/svg"
   xmlns="http://www.w3.org/2000/svg"
   xmlns:sodipodi="http://sodipodi.sourceforge.net/DTD/sodipodi-0.dtd"
   xmlns:inkscape="http://www.inkscape.org/namespaces/inkscape"
   width="600"
   height="600"
   viewBox="0 0 158.75 158.75"
   version="1.1"
   id="svg8"
   inkscape:version="0.92.4 (unknown)"
   sodipodi:docname="GITHUB.svg">
  <defs
     id="defs2" />
  <sodipodi:namedview
     id="base"
     pagecolor="#ffffff"
     bordercolor="#666666"
     borderopacity="1.0"
     inkscape:pageopacity="0.0"
     inkscape:pageshadow="2"
     inkscape:zoom="0.35"
     inkscape:cx="400"
     inkscape:cy="560"
     inkscape:document-units="mm"
     inkscape:current-layer="layer1"
     showgrid="false"
     units="px"
     inkscape:window-width="1837"
     inkscape:window-height="1018"
     inkscape:window-x="83"
     inkscape:window-y="34"
     inkscape:window-maximized="1" />
  <metadata
     id="metadata5">
    <rdf:RDF>
      <cc:Work
         rdf:about="">
        <dc:format>image/svg+xml</dc:format>
        <dc:type
           rdf:resource="http://purl.org/dc/dcmitype/StillImage" />
        <dc:title />
      </cc:Work>
    </rdf:RDF>
  </metadata>
  <g
     inkscape:label="Layer 1"
     inkscape:groupmode="layer"
     id="layer1"
     transform="translate(0,-138.24998)">
    <path
       style="fill:#ffcc00;stroke-width:0.36173874"
       d="M 52.57864,292.63624 C 48.73724,291.33689 39.6031,286.77896 35.75779,284.24265 18.58685,272.9169 5.74967,253.98437 1.77352,234.12193 c -4.61519,-23.05474 0.70038,-46.1348 14.92162,-64.78924 8.14219,-10.68037 20.72292,-20.23747 33.12581,-25.16444 8.19616,-3.25585 15.2313,-4.81152 24.61235,-5.4425 14.39002,-0.96785 29.17474,2.08147 41.44962,8.54891 31.94474,16.83121 48.47451,51.50676 41.39989,86.84727 -4.0085,20.02405 -16.98571,39.05754 -34.34598,50.37479 -3.85911,2.51574 -12.63834,6.82724 -16.47667,8.09168 -3.73511,1.23044 -5.1335,1.04826 -6.40331,-0.83413 -0.80643,-1.19546 -0.81397,-1.32657 -0.82019,-14.26608 -0.007,-14.0358 -0.21198,-16.16519 -1.91695,-19.88932 -0.47462,-1.03672 -1.38714,-2.48196 -2.02778,-3.21162 -1.34244,-1.52896 -1.61606,-1.34251 3.04666,-2.07598 13.09068,-2.05919 22.59849,-7.87758 27.06151,-16.56054 1.75504,-3.41448 3.20465,-7.64073 3.85953,-11.25218 1.17201,-6.46324 1.10186,-14.51917 -0.1689,-19.39505 -0.81442,-3.12492 -3.04078,-7.58551 -5.16861,-10.35546 l -1.84149,-2.39721 0.65726,-2.12452 c 1.45168,-4.69241 1.27498,-9.98794 -0.53122,-15.92065 -0.84874,-2.78777 -0.95869,-2.95554 -2.07263,-3.16234 -2.86477,-0.53184 -10.61735,2.24184 -17.02813,6.09225 -3.52782,2.11885 -3.95758,2.2876 -5.03563,1.97718 -1.60982,-0.46354 -8.30518,-1.67225 -10.87468,-1.96321 -6.69356,-0.75793 -17.89732,-0.037 -24.82294,1.59713 l -2.71302,0.64017 -2.49519,-1.61413 c -5.17205,-3.34577 -13.63771,-6.67105 -17.11135,-6.72126 -1.04915,-0.0152 -2.00143,0.0663 -2.11618,0.18108 -0.50778,0.50777 -1.67966,4.53655 -2.21583,7.61774 -0.68434,3.93268 -0.48949,7.79666 0.56386,11.18106 l 0.69222,2.22416 -1.81199,2.39362 c -2.17524,2.87343 -4.43884,7.3788 -5.20226,10.35439 -0.9223,3.59485 -1.26314,8.71115 -0.88742,13.32085 0.98512,12.08654 4.9764,20.79913 12.00469,26.20512 4.5086,3.46791 11.8055,6.41711 18.55236,7.49834 1.98957,0.31884 3.99524,0.65915 4.45705,0.75625 l 0.83965,0.17655 -1.10419,1.25761 c -1.73714,1.97847 -3.64991,6.35621 -3.64991,8.35351 0,1.00992 -1.46479,1.71772 -5.17842,2.5022 -8.05797,1.70224 -13.33461,-0.70925 -18.14959,-8.29459 -1.88413,-2.96818 -4.26415,-5.12329 -7.33334,-6.64029 -2.14696,-1.0612 -3.05257,-1.30438 -4.95921,-1.33171 -2.9916,-0.0429 -3.80876,0.56941 -2.95729,2.21597 0.30526,0.59032 1.72074,1.86253 3.14553,2.82714 3.1061,2.10295 5.77448,5.62908 7.79247,10.29733 1.77405,4.10395 3.0186,5.83423 5.44749,7.57351 2.56517,1.83689 4.9059,2.70483 8.86269,3.28633 3.01464,0.44306 9.63875,0.3199 11.97315,-0.22258 l 0.99479,-0.23116 v 8.17557 8.1756 l -0.99479,1.07512 c -1.4182,1.53274 -2.94919,1.66918 -6.23999,0.55607 z"
       id="path5529"
       inkscape:connector-curvature="0" />
  </g>
</svg>
