<?xml version="1.0" encoding="UTF-8" standalone="no"?>
<!-- Created with Inkscape (http://www.inkscape.org/) -->

<svg
   xmlns:dc="http://purl.org/dc/elements/1.1/"
   xmlns:cc="http://creativecommons.org/ns#"
   xmlns:rdf="http://www.w3.org/1999/02/22-rdf-syntax-ns#"
   xmlns:svg="http://www.w3.org/2000/svg"
   xmlns="http://www.w3.org/2000/svg"
   xmlns:sodipodi="http://sodipodi.sourceforge.net/DTD/sodipodi-0.dtd"
   xmlns:inkscape="http://www.inkscape.org/namespaces/inkscape"
   width="600"
   height="600"
   viewBox="0 0 158.75 158.75"
   version="1.1"
   id="svg8"
   inkscape:version="0.92.4 (unknown)"
   sodipodi:docname="LINKEDIN.svg">
  <defs
     id="defs2" />
  <sodipodi:namedview
     id="base"
     pagecolor="#ffffff"
     bordercolor="#666666"
     borderopacity="1.0"
     inkscape:pageopacity="0.0"
     inkscape:pageshadow="2"
     inkscape:zoom="0.35"
     inkscape:cx="400"
     inkscape:cy="560"
     inkscape:document-units="mm"
     inkscape:current-layer="layer1"
     showgrid="false"
     units="px"
     inkscape:window-width="1837"
     inkscape:window-height="1018"
     inkscape:window-x="83"
     inkscape:window-y="34"
     inkscape:window-maximized="1" />
  <metadata
     id="metadata5">
    <rdf:RDF>
      <cc:Work
         rdf:about="">
        <dc:format>image/svg+xml</dc:format>
        <dc:type
           rdf:resource="http://purl.org/dc/dcmitype/StillImage" />
        <dc:title />
      </cc:Work>
    </rdf:RDF>
  </metadata>
  <g
     inkscape:label="Layer 1"
     inkscape:groupmode="layer"
     id="layer1"
     transform="translate(0,-138.24998)">
    <path
       style="fill:#e3007a;fill-opacity:1;stroke-width:0.31027529"
       d="M 72.357616,296.40834 C 60.395646,295.26781 48.429044,291.28056 38.263113,285.04812 28.041806,278.78174 18.195338,268.93527 11.928954,258.71396 -2.3512804,235.42101 -3.5893634,206.30684 8.6597539,181.83723 15.104399,168.96301 25.947199,157.15838 38.263113,149.60785 c 23.292953,-14.28024 52.407113,-15.51832 76.876717,-3.2692 12.87423,6.44464 24.67886,17.28744 32.22939,29.60336 14.28023,23.29295 15.51832,52.40712 3.2692,76.87673 -6.44465,12.87422 -17.28745,24.67885 -29.60336,32.22938 -14.41797,8.83923 -32.023924,12.94807 -48.677444,11.36022 z M 118.3169,258.68577 c 1.59834,-0.855 2.78914,-2.2467 3.20568,-3.74654 0.44343,-1.59663 0.44343,-74.86696 0,-76.46359 -0.41654,-1.49983 -1.60734,-2.89154 -3.20568,-3.74654 l -1.27965,-0.68451 H 79.485676 41.934079 l -1.540322,0.79267 c -1.094135,0.56307 -1.81077,1.23011 -2.473927,2.30274 l -0.933593,1.51005 v 38.03305 38.03306 l 0.850521,1.44679 c 0.937053,1.59404 2.287796,2.57872 4.141591,3.01922 0.718263,0.17068 16.279887,0.26788 38.136147,0.23822 l 36.922754,-0.0501 z M 49.862661,226.32597 V 207.0889 h 6.360645 6.36065 v 19.23707 19.23706 h -6.36065 -6.360645 z m 19.857615,0 V 207.0889 h 6.36064 6.36065 v 2.48221 c 0,1.3652 0.10472,2.48124 0.23271,2.48008 0.12799,-0.001 0.56864,-0.49537 0.97921,-1.09823 0.98995,-1.45353 2.68099,-2.76112 4.86233,-3.75977 1.37888,-0.63126 2.43444,-0.85064 4.651,-0.96657 7.493774,-0.39197 12.400864,2.96012 14.764504,10.08585 0.67151,2.02439 0.70134,2.59939 0.81334,15.67602 l 0.11622,13.57454 h -6.36687 -6.366874 l -0.0943,-12.02316 c -0.0933,-11.90484 -0.10156,-12.03928 -0.83374,-13.65927 -1.4195,-3.14097 -4.18659,-4.40403 -7.58242,-3.46107 -1.46456,0.40669 -3.44664,2.1569 -4.34294,3.8349 -0.65304,1.22257 -0.67752,1.64041 -0.77849,13.28544 l -0.10426,12.02316 h -6.33537 -6.33537 z M 54.690433,201.45503 c -3.168339,-0.46882 -5.448325,-3.14337 -5.448325,-6.3912 0,-2.06391 0.621422,-3.44722 2.181868,-4.857 2.731171,-2.46744 7.52023,-2.35309 10.11484,0.24152 2.54391,2.54391 2.61947,6.4159 0.17542,8.98894 -1.6384,1.72486 -4.14219,2.44413 -7.023803,2.01774 z"
       id="path5555"
       inkscape:connector-curvature="0" />
  </g>
</svg>
