<?xml version="1.0" encoding="UTF-8" standalone="no"?>
<!-- Created with Inkscape (http://www.inkscape.org/) -->

<svg
   xmlns:dc="http://purl.org/dc/elements/1.1/"
   xmlns:cc="http://creativecommons.org/ns#"
   xmlns:rdf="http://www.w3.org/1999/02/22-rdf-syntax-ns#"
   xmlns:svg="http://www.w3.org/2000/svg"
   xmlns="http://www.w3.org/2000/svg"
   xmlns:sodipodi="http://sodipodi.sourceforge.net/DTD/sodipodi-0.dtd"
   xmlns:inkscape="http://www.inkscape.org/namespaces/inkscape"
   width="600"
   height="600"
   viewBox="0 0 158.75 158.75"
   version="1.1"
   id="svg8"
   inkscape:version="0.91 r13725"
   sodipodi:docname="LINKEDIN.svg">
  <defs
     id="defs2" />
  <sodipodi:namedview
     id="base"
     pagecolor="#ffffff"
     bordercolor="#666666"
     borderopacity="1.0"
     inkscape:pageopacity="0.0"
     inkscape:pageshadow="2"
     inkscape:zoom="0.35"
     inkscape:cx="400"
     inkscape:cy="560"
     inkscape:document-units="mm"
     inkscape:current-layer="layer1"
     showgrid="false"
     units="px"
     inkscape:window-width="1511"
     inkscape:window-height="867"
     inkscape:window-x="89"
     inkscape:window-y="33"
     inkscape:window-maximized="1" />
  <metadata
     id="metadata5">
    <rdf:RDF>
      <cc:Work
         rdf:about="">
        <dc:format>image/svg+xml</dc:format>
        <dc:type
           rdf:resource="http://purl.org/dc/dcmitype/StillImage" />
        <dc:title></dc:title>
      </cc:Work>
    </rdf:RDF>
  </metadata>
  <g
     inkscape:label="Layer 1"
     inkscape:groupmode="layer"
     id="layer1"
     transform="translate(0,-138.24998)">
    <g
       id="g4463"
       transform="matrix(0,-0.26458333,0.26458333,0,21.360611,274.12719)"
       style="fill:#e3007a;fill-opacity:1">
      <g
         id="g4419"
         style="fill:#e3007a;fill-opacity:1">
        <g
           id="g4421"
           style="fill:#e3007a;fill-opacity:1">
          <path
             id="path4423"
             d="M 409.133,109.203 C 389.525,75.611 362.928,49.014 329.335,29.407 295.736,9.801 259.058,0 219.273,0 179.492,0 142.803,9.801 109.21,29.407 75.615,49.011 49.018,75.608 29.41,109.203 9.801,142.8 0,179.489 0,219.267 c 0,39.78 9.804,76.463 29.407,110.062 19.607,33.592 46.204,60.189 79.799,79.798 33.597,19.605 70.283,29.407 110.063,29.407 39.78,0 76.47,-9.802 110.065,-29.407 33.593,-19.602 60.189,-46.206 79.795,-79.798 19.603,-33.596 29.403,-70.284 29.403,-110.062 0.001,-39.782 -9.8,-76.472 -29.399,-110.064 z m -55.391,188.005 c -13.894,23.791 -32.736,42.633 -56.527,56.534 -23.791,13.894 -49.771,20.834 -77.945,20.834 -28.167,0 -54.149,-6.94 -77.943,-20.834 C 117.536,339.841 98.694,320.999 84.8,297.208 70.903,273.417 63.957,247.436 63.957,219.267 c 0,-28.171 6.949,-54.152 20.843,-77.943 13.891,-23.791 32.738,-42.637 56.527,-56.53 23.791,-13.895 49.772,-20.84 77.943,-20.84 28.173,0 54.154,6.945 77.945,20.84 23.791,13.894 42.634,32.739 56.527,56.53 13.895,23.791 20.838,49.772 20.838,77.943 0,28.169 -6.943,54.15 -20.838,77.941 z"
             inkscape:connector-curvature="0"
             style="fill:#e3007a;fill-opacity:1" />
          <path
             id="path4425"
             d="m 310.633,219.267 -54.813,0 0,-100.504 c 0,-2.666 -0.862,-4.853 -2.573,-6.567 -1.704,-1.709 -3.895,-2.568 -6.557,-2.568 l -54.823,0 c -2.664,0 -4.854,0.859 -6.567,2.568 -1.714,1.715 -2.57,3.901 -2.57,6.567 l 0,100.5 -54.819,0 c -4.186,0 -7.042,1.905 -8.566,5.709 -1.524,3.621 -0.854,6.947 1.999,9.996 l 91.363,91.361 c 2.096,1.711 4.283,2.567 6.567,2.567 2.281,0 4.471,-0.856 6.569,-2.567 l 91.077,-91.073 c 1.902,-2.283 2.851,-4.576 2.851,-6.852 0,-2.662 -0.855,-4.853 -2.573,-6.57 -1.709,-1.712 -3.899,-2.567 -6.565,-2.567 z"
             inkscape:connector-curvature="0"
             style="fill:#e3007a;fill-opacity:1" />
        </g>
      </g>
      <g
         id="g4427"
         style="fill:#e3007a;fill-opacity:1" />
      <g
         id="g4429"
         style="fill:#e3007a;fill-opacity:1" />
      <g
         id="g4431"
         style="fill:#e3007a;fill-opacity:1" />
      <g
         id="g4433"
         style="fill:#e3007a;fill-opacity:1" />
      <g
         id="g4435"
         style="fill:#e3007a;fill-opacity:1" />
      <g
         id="g4437"
         style="fill:#e3007a;fill-opacity:1" />
      <g
         id="g4439"
         style="fill:#e3007a;fill-opacity:1" />
      <g
         id="g4441"
         style="fill:#e3007a;fill-opacity:1" />
      <g
         id="g4443"
         style="fill:#e3007a;fill-opacity:1" />
      <g
         id="g4445"
         style="fill:#e3007a;fill-opacity:1" />
      <g
         id="g4447"
         style="fill:#e3007a;fill-opacity:1" />
      <g
         id="g4449"
         style="fill:#e3007a;fill-opacity:1" />
      <g
         id="g4451"
         style="fill:#e3007a;fill-opacity:1" />
      <g
         id="g4453"
         style="fill:#e3007a;fill-opacity:1" />
      <g
         id="g4455"
         style="fill:#e3007a;fill-opacity:1" />
    </g>
  </g>
</svg>
