<?xml version="1.0" encoding="UTF-8" standalone="no"?>
<!-- Created with Inkscape (http://www.inkscape.org/) -->

<svg
   xmlns:dc="http://purl.org/dc/elements/1.1/"
   xmlns:cc="http://creativecommons.org/ns#"
   xmlns:rdf="http://www.w3.org/1999/02/22-rdf-syntax-ns#"
   xmlns:svg="http://www.w3.org/2000/svg"
   xmlns="http://www.w3.org/2000/svg"
   xmlns:sodipodi="http://sodipodi.sourceforge.net/DTD/sodipodi-0.dtd"
   xmlns:inkscape="http://www.inkscape.org/namespaces/inkscape"
   width="1000"
   height="1000"
   viewBox="0 0 264.58333 264.58333"
   version="1.1"
   id="svg972"
   inkscape:version="0.92.4 (unknown)"
   sodipodi:docname="SKILLS BUTTON.svg">
  <defs
     id="defs966" />
  <sodipodi:namedview
     id="base"
     pagecolor="#ffffff"
     bordercolor="#666666"
     borderopacity="1.0"
     inkscape:pageopacity="0.0"
     inkscape:pageshadow="2"
     inkscape:zoom="0.35"
     inkscape:cx="400"
     inkscape:cy="560"
     inkscape:document-units="mm"
     inkscape:current-layer="layer1"
     showgrid="false"
     units="px"
     inkscape:window-width="943"
     inkscape:window-height="951"
     inkscape:window-x="133"
     inkscape:window-y="84"
     inkscape:window-maximized="0" />
  <metadata
     id="metadata969">
    <rdf:RDF>
      <cc:Work
         rdf:about="">
        <dc:format>image/svg+xml</dc:format>
        <dc:type
           rdf:resource="http://purl.org/dc/dcmitype/StillImage" />
        <dc:title></dc:title>
      </cc:Work>
    </rdf:RDF>
  </metadata>
  <g
     inkscape:label="Layer 1"
     inkscape:groupmode="layer"
     id="layer1"
     transform="translate(0,-32.416668)">
    <rect
       id="rect34-3-3"
       width="255.89848"
       height="255.89848"
       x="4.6400471"
       y="36.461487"
       style="fill:#fff6d5;fill-opacity:0.37254902;stroke:#e3007a;stroke-width:8.68485546;stroke-miterlimit:4;stroke-dasharray:none;stroke-opacity:1"
       ry="17.974052" />
    <text
       xml:space="preserve"
       style="font-style:normal;font-variant:normal;font-weight:bold;font-stretch:normal;font-size:37.33564377px;line-height:1.25;font-family:sans-serif;-inkscape-font-specification:'sans-serif Bold';letter-spacing:0px;word-spacing:0px;fill:#e3007a;fill-opacity:1;stroke:none;stroke-width:0.93339115"
       x="72.669518"
       y="264.19757"
       id="text854-7-5"><tspan
         sodipodi:role="line"
         id="tspan852-5-6"
         x="72.669518"
         y="264.19757"
         style="font-style:normal;font-variant:normal;font-weight:bold;font-stretch:normal;font-size:31.1130352px;font-family:sans-serif;-inkscape-font-specification:'sans-serif Bold';fill:#e3007a;fill-opacity:1;stroke-width:0.93339115">SKILLS</tspan></text>
    <path
       style="fill:#e3007a;fill-opacity:1;stroke-width:1.25995839"
       d="m 93.781195,205.27879 c -4.516577,-6.44828 -0.410491,-14.17743 7.414285,-13.95567 3.30494,0.0938 4.84777,-0.47236 5.31459,-1.95061 2.27276,-7.19611 6.03266,-10.27243 12.55505,-10.27243 3.87651,0 10.55345,6.31591 10.55345,9.98276 0,2.03595 0.79573,2.61684 3.58458,2.61684 4.52798,0 7.75504,3.49906 7.75504,8.4086 0,7.22583 -2.32843,7.9708 -24.91192,7.9708 -19.552923,0 -20.376238,-0.10372 -22.265075,-2.80029 z m 89.565215,0.24483 c -11.74548,-3.51976 -16.00362,-19.05748 -7.62063,-27.80735 7.36026,-7.68252 17.69413,-7.58578 25.18759,0.23566 3.20429,3.34447 3.67274,4.77647 3.67274,11.22775 0,6.46737 -0.46478,7.87936 -3.70826,11.26482 -2.03952,2.12881 -5.72491,4.43078 -8.1897,5.11553 -5.06017,1.40572 -4.52215,1.4078 -9.34174,-0.038 z m 6.75016,-10.04407 v -5.03978 h 5.03982 c 2.77196,0 5.03989,-0.56699 5.03989,-1.26002 0,-0.69296 -2.26793,-1.25995 -5.03989,-1.25995 h -5.03982 v -5.03981 c 0,-3.63986 -0.52496,-5.03985 -1.8899,-5.03985 -1.365,0 -1.88997,1.39999 -1.88997,5.03985 v 5.03981 h -5.03982 c -2.77191,0 -5.03985,0.56699 -5.03985,1.25995 0,0.69303 2.26794,1.26002 5.03985,1.26002 h 5.03982 v 5.03978 c 0,3.63986 0.52497,5.03978 1.88997,5.03978 1.36494,0 1.8899,-1.39992 1.8899,-5.03978 z M 56.760589,187.5236 c -3.553425,-3.78249 -3.642537,-10.75895 -0.184856,-14.47045 2.714766,-2.91391 6.232666,-4.06104 11.20274,-3.65298 2.447784,0.20109 3.255751,-0.53542 4.103829,-3.74015 1.373328,-5.18979 7.713167,-10.49912 12.536913,-10.49912 7.381555,0 14.960283,6.67028 14.960283,13.16696 0,1.38731 1.262342,1.95253 4.360762,1.95253 2.87601,0 5.24382,0.9478 6.95423,2.78377 l 2.59351,2.7838 -3.8982,3.05076 c -2.144,1.67791 -4.40886,4.39409 -5.0331,6.03595 -0.84176,2.21406 -2.10019,2.98513 -4.871657,2.98513 -2.055183,0 -4.087141,0.56699 -4.515405,1.25995 -0.458127,0.74125 -7.919618,1.26002 -18.124141,1.26002 -16.501885,0 -17.478691,-0.14182 -20.084978,-2.91617 z m 70.338061,-8.28521 c -1.73242,-1.26593 -4.76701,-2.6908 -6.74349,-3.16627 -1.97651,-0.47548 -4.98736,-2.52085 -6.69072,-4.54523 -1.70345,-2.02442 -4.9056,-4.02918 -7.11601,-4.45505 -3.05231,-0.58808 -4.54057,-1.89167 -6.18761,-5.41958 -2.748354,-5.88684 -8.668919,-9.43127 -15.753897,-9.43127 -6.471812,0 -11.267402,3.05647 -14.63763,9.32924 l -2.321242,4.3203 0.688693,-4.85811 c 0.867516,-6.11988 3.601755,-10.32943 8.747054,-13.46672 3.80552,-2.3204 6.673528,-2.45534 52.282332,-2.45974 53.28451,-0.003 53.43497,0.0141 58.26153,7.93118 1.52512,2.50123 2.4613,6.30738 2.46422,10.0185 0.003,5.91209 -0.043,5.98487 -4.09018,5.98949 -5.21416,0.007 -11.82049,4.01309 -14.56318,8.83331 l -2.13121,3.74565 -19.52943,-0.0317 c -16.89078,-0.0283 -19.9549,-0.3429 -22.67923,-2.33373 z m 52.03423,-11.71267 c 2.21777,-2.98319 2.3258,-3.84436 0.91066,-7.26077 -3.54831,-8.56636 -16.40607,-6.31962 -16.40607,2.86675 0,8.56979 10.23372,11.47173 15.49541,4.39402 z m -11.00384,-0.93493 c -2.84085,-3.13912 -1.55915,-7.38932 2.53855,-8.41777 5.7695,-1.44805 9.09115,4.6258 4.84945,8.86748 -2.62497,2.62499 -4.7209,2.49743 -7.388,-0.44968 z m 23.95208,-12.39177 c -0.43381,-1.36712 -1.90838,-3.49878 -3.27666,-4.73703 -3.25529,-2.94605 -3.36053,-10.76011 -0.18381,-13.63519 3.05831,-2.76771 9.39191,-2.65204 11.99015,0.21873 1.14688,1.26728 2.08521,4.27062 2.08521,6.67407 0,3.41929 -1.06879,5.41361 -4.91308,9.16742 -4.48335,4.3779 -4.98202,4.58007 -5.70198,2.31178 z m -14.26915,-11.94862 -4.09483,-1.31357 V 119.06986 97.202829 h 4.40986 4.40983 v 23.309251 c 0,12.82006 -0.14181,23.25134 -0.31467,23.18062 -0.17322,-0.0709 -2.15767,-0.71975 -4.40983,-1.44223 z M 80.480201,124.74715 V 107.2824 h 6.299765 6.299795 v 14.26993 c 0,13.19434 -0.213783,14.46431 -2.834882,16.8488 -1.559174,1.41834 -4.39413,2.85605 -6.299803,3.19482 l -3.464875,0.61589 z m 29.604799,-2.34096 18.86362,-18.89517 3.7779,3.7779 3.77793,3.7779 -15.07787,15.11726 -15.07782,15.11724 h -7.563729 -7.563663 z m 14.14885,4.76451 14.13062,-14.13065 3.84376,3.68253 3.84376,3.68258 -10.39378,10.44807 -10.39386,10.44809 h -7.58056 -7.58055 z m 36.8837,-7.91866 V 97.202759 h 4.40985 4.40986 v 22.049281 22.04928 h -4.40986 -4.40985 z m 47.35523,17.06594 c -3.95144,-0.54987 -4.57825,-0.97289 -3.14993,-2.12584 0.98076,-0.79163 2.85637,-1.64211 4.16803,-1.88993 3.5262,-0.66619 5.48898,-4.34126 3.77346,-7.06536 -0.7637,-1.21272 -2.25118,-2.37498 -3.30554,-2.58283 -2.34049,-0.46147 -6.31485,3.26333 -5.27578,4.94453 0.82546,1.33565 -1.64532,4.88308 -3.40106,4.88308 -0.60815,0 -1.10568,-2.24227 -1.10568,-4.98274 0,-4.77845 0.19368,-5.01491 4.72478,-5.76703 2.59872,-0.43135 6.37601,-1.31004 8.39407,-1.9527 2.01806,-0.64265 3.90208,-0.93556 4.18669,-0.65094 0.2847,0.28468 -0.0875,2.69687 -0.82726,5.36052 -0.73959,2.66362 -1.34792,6.3687 -1.3518,8.23352 -0.0105,4.15053 -0.60121,4.4625 -6.82998,3.59572 z m -0.73676,-8.87621 c 0,-0.69295 0.56696,-1.25995 1.25995,-1.25995 0.69296,0 1.25995,0.567 1.25995,1.25995 0,0.693 -0.56699,1.25999 -1.25995,1.25999 -0.69299,0 -1.25995,-0.56699 -1.25995,-1.25999 z m -67.88576,-18.11549 c -6.76673,-6.85186 -6.81763,-8.34365 -0.2847,-8.34365 2.91163,0 8.95732,6.44197 8.93308,9.51861 -0.0477,5.85266 -1.96556,5.59189 -8.64841,-1.17496 z m -60.290209,-6.43177 c -6.071941,-2.63966 -9.414722,-8.766671 -8.783425,-16.099191 0.301625,-3.50273 1.51003,-7.1017 2.905055,-8.65194 2.382695,-2.647741 2.39021,-2.637511 3.018648,4.10763 0.585787,6.28784 0.962942,6.93872 5.378556,9.28191 l 4.748636,2.51992 4.701077,-2.69557 c 4.324739,-2.47975 4.75188,-3.23628 5.335379,-9.44968 l 0.634294,-6.754111 2.825929,4.409861 c 1.55423,2.42542 2.82798,6.11964 2.83054,8.20939 0.004,5.50368 -3.948035,12.03565 -8.892675,14.687481 -5.083948,2.72654 -9.152643,2.84674 -14.702014,0.4343 z m 67.260179,-0.43956 c -2.19166,-2.42179 -2.17719,-2.532311 0.44048,-3.363211 3.4906,-1.10786 4.46744,-0.0536 2.99914,3.237061 -1.16984,2.62173 -1.18096,2.62216 -3.4398,0.12629 z m 20.59711,-17.975511 v -8.943443 l 4.09487,2.584903 c 3.61745,2.28354 4.13928,3.3262 4.47572,8.94341 l 0.38098,6.35854 h -4.47574 -4.47569 z"
       id="path891-2"
       inkscape:connector-curvature="0"
       sodipodi:nodetypes="cccsssssccccsccccscssscssscssscsssccccssscccsscsccccscsscccscccscccccsscccscccsssscccccccccscccccccscccccccccccccccccccccccccccccccsccsccsscccccsssssscscccccccccsccscccccccccccsccccc" />
  </g>
</svg>
