<?xml version="1.0" encoding="UTF-8" standalone="no"?>
<!-- Created with Inkscape (http://www.inkscape.org/) -->

<svg
   xmlns:dc="http://purl.org/dc/elements/1.1/"
   xmlns:cc="http://creativecommons.org/ns#"
   xmlns:rdf="http://www.w3.org/1999/02/22-rdf-syntax-ns#"
   xmlns:svg="http://www.w3.org/2000/svg"
   xmlns="http://www.w3.org/2000/svg"
   xmlns:sodipodi="http://sodipodi.sourceforge.net/DTD/sodipodi-0.dtd"
   xmlns:inkscape="http://www.inkscape.org/namespaces/inkscape"
   width="600"
   height="600"
   viewBox="0 0 158.75 158.75"
   version="1.1"
   id="svg8"
   inkscape:version="0.92.4 (unknown)"
   sodipodi:docname="TWITTER.svg">
  <defs
     id="defs2" />
  <sodipodi:namedview
     id="base"
     pagecolor="#ffffff"
     bordercolor="#666666"
     borderopacity="1.0"
     inkscape:pageopacity="0.0"
     inkscape:pageshadow="2"
     inkscape:zoom="0.35"
     inkscape:cx="400"
     inkscape:cy="560"
     inkscape:document-units="mm"
     inkscape:current-layer="layer1"
     showgrid="false"
     units="px"
     inkscape:window-width="1837"
     inkscape:window-height="1018"
     inkscape:window-x="83"
     inkscape:window-y="34"
     inkscape:window-maximized="1" />
  <metadata
     id="metadata5">
    <rdf:RDF>
      <cc:Work
         rdf:about="">
        <dc:format>image/svg+xml</dc:format>
        <dc:type
           rdf:resource="http://purl.org/dc/dcmitype/StillImage" />
        <dc:title></dc:title>
      </cc:Work>
    </rdf:RDF>
  </metadata>
  <g
     inkscape:label="Layer 1"
     inkscape:groupmode="layer"
     id="layer1"
     transform="translate(0,-138.24998)">
    <path
       style="fill:#009ee1;fill-opacity:1;stroke-width:0.25974825"
       d="M 73.842341,297.33261 C 65.749253,296.78243 55.629003,294.19735 47.831644,290.68853 38.690473,286.575 31.131666,281.34031 23.924627,274.13223 11.103718,261.3095 3.7005607,245.97669 1.1630355,226.99032 0.72772648,223.7332 0.72408248,212.54615 1.1571355,209.33708 3.3309259,193.23433 8.6576907,180.49764 18.311278,168.32024 c 2.525669,-3.18598 8.552118,-9.20836 11.869392,-11.86139 13.199748,-10.55665 28.46362,-16.47691 45.155887,-17.51423 19.862556,-1.23432 39.133853,4.89672 54.805113,17.43591 3.40409,2.72375 9.41388,8.7203 11.96605,11.93971 9.65359,12.1774 14.98035,24.91409 17.15414,41.01684 0.43236,3.20276 0.42948,14.3938 -0.005,17.65324 -2.52674,18.97572 -9.92228,34.29281 -22.76281,47.14461 -16.70842,16.72309 -38.609416,24.83216 -62.652329,23.19768 z m -2.81579,-42.95347 c 7.099894,-0.87802 14.049679,-3.42763 19.968532,-7.32572 13.940747,-9.18121 23.260157,-26.83394 23.260157,-44.05914 v -2.92029 l 1.96058,-1.66391 c 2.13548,-1.81237 6.61579,-6.94316 6.61579,-7.57633 0,-0.0836 -0.96484,0.19988 -2.1441,0.63003 -1.91408,0.6982 -6.22786,1.76292 -7.18597,1.77363 -0.20011,0.002 0.0926,-0.32628 0.65067,-0.73004 1.78686,-1.29299 4.14079,-4.10713 5.26101,-6.28959 0.59365,-1.15661 1.07938,-2.27024 1.07938,-2.47474 0,-0.26463 -0.65562,-0.0448 -2.27404,0.76216 -2.13136,1.06284 -4.96408,2.10004 -7.55323,2.76562 l -1.12096,0.28816 -1.61603,-1.51007 c -1.67943,-1.56933 -4.2116,-3.03963 -6.6676,-3.87155 -2.167108,-0.73407 -7.295711,-0.68806 -9.745884,0.0874 -5.287975,1.67364 -9.637046,6.08711 -11.512831,11.68334 -0.608826,1.81637 -0.678085,2.4201 -0.68941,6.00948 l -0.01257,3.99024 -1.815023,-0.16851 c -12.074293,-1.12095 -24.449432,-7.94025 -32.694918,-18.01648 -1.531768,-1.87187 -1.579123,-1.85861 -2.547957,0.71334 -0.940584,2.49696 -1.356837,5.3366 -1.181975,8.06333 0.33668,5.25005 2.159365,9.2843 5.835203,12.91542 1.210412,1.19568 1.512143,1.62254 1.146908,1.62254 -0.972409,0 -4.450165,-1.01604 -5.777495,-1.68791 -0.742609,-0.3759 -1.385971,-0.6464 -1.429681,-0.6011 -0.242256,0.25102 0.445573,4.53441 1.013733,6.31292 0.940338,2.94355 2.308805,5.13429 4.705062,7.53222 2.181956,2.18348 4.263182,3.48448 6.87973,4.30059 1.420144,0.44295 1.427737,0.45067 0.657084,0.66801 -0.428826,0.12094 -2.196867,0.2199 -3.928997,0.2199 h -3.149327 l 0.327584,0.92711 c 2.237641,6.33284 7.992191,11.03243 14.523493,11.861 l 1.515178,0.19221 -1.915126,1.38723 c -2.485671,1.80053 -7.529093,4.25713 -10.491486,5.11033 -3.451549,0.99406 -7.538719,1.48814 -10.785437,1.30382 l -2.72885,-0.15492 1.429397,0.93421 c 3.620488,2.36622 9.745664,5.0078 14.034061,6.05242 5.472237,1.33299 12.144858,1.68076 18.105358,0.94364 z"
       id="path5568"
       inkscape:connector-curvature="0" />
  </g>
</svg>
